<svg width="20" height="18" viewBox="0 0 20 18" fill="none" xmlns="http://www.w3.org/2000/svg">
<path d="M11.2048 0.391235C7.02395 0.391235 3.53117 3.38175 2.74619 7.33438L1.10661 5.28473L0.0701904 6.11413L2.72431 9.43177C2.85368 9.59302 3.04611 9.68059 3.24252 9.68059C3.34271 9.68059 3.44422 9.65801 3.53912 9.61093L7.52028 7.62033L6.92642 6.43327L4.00094 7.8957C4.5437 4.40288 7.56208 1.71828 11.2048 1.71828C15.2291 1.71828 18.5036 4.99276 18.5036 9.01707C18.5036 13.0414 15.2291 16.3159 11.2048 16.3159V17.6429C15.961 17.6429 19.8307 13.7732 19.8307 9.01707C19.8307 4.26093 15.961 0.391235 11.2048 0.391235Z" fill="#31AF66"/>
</svg>
