<svg width="21" height="21" viewBox="0 0 21 21" fill="none" xmlns="http://www.w3.org/2000/svg">
<path d="M11.9175 20.0171H9.26123C8.83047 20.0171 8.47998 19.6666 8.47998 19.2358V18.0696C7.74496 17.8775 7.04352 17.5867 6.3877 17.202L5.56235 18.0273C5.25763 18.3319 4.76202 18.3319 4.45746 18.0273L2.5791 16.149C2.27454 15.8444 2.27454 15.3488 2.5791 15.0443L3.40445 14.2188C3.01978 13.5629 2.72894 12.8615 2.53683 12.1265H1.37061C0.93985 12.1265 0.589355 11.776 0.589355 11.3452V8.68896C0.589355 8.25821 0.93985 7.90771 1.37061 7.90771H2.53424C2.72574 7.17148 3.01627 6.46881 3.40094 5.81177L2.5791 4.98993C2.27454 4.68536 2.27454 4.18976 2.5791 3.88519L4.45746 2.00684C4.76202 1.70227 5.25763 1.70227 5.56235 2.00684L6.38129 2.82593C7.03894 2.43942 7.74252 2.14737 8.47998 1.95465V0.79834C8.47998 0.367584 8.83047 0.0170898 9.26123 0.0170898H11.9175C12.3482 0.0170898 12.6987 0.367584 12.6987 0.79834V1.95206C13.4373 2.14417 14.1422 2.43591 14.8009 2.82227L15.6165 2.00684C15.9211 1.70227 16.4167 1.70227 16.7213 2.00684L18.5996 3.88519C18.9042 4.18976 18.9042 4.68536 18.5996 4.99008L17.7842 5.80551C18.1705 6.46423 18.4623 7.16919 18.6544 7.90771H19.8081C20.2389 7.90771 20.5894 8.25821 20.5894 8.68896V11.3452C20.5894 11.776 20.2389 12.1265 19.8081 12.1265H18.6518C18.4591 12.8639 18.1669 13.5675 17.7805 14.2252L18.5995 15.0443C18.904 15.3488 18.904 15.8444 18.5995 16.149L16.7213 18.0273C16.4167 18.3319 15.9211 18.3319 15.6164 18.0273L14.7947 17.2055C14.1375 17.5902 13.4348 17.8807 12.6987 18.0722V19.2358C12.6987 19.6666 12.3482 20.0171 11.9175 20.0171ZM6.3291 16.3174C6.40173 16.3174 6.47452 16.3376 6.53922 16.3788C7.28247 16.8533 8.09531 17.1904 8.95499 17.3807C9.13397 17.4203 9.26123 17.5789 9.26123 17.7621V19.2358H11.9175V17.7643C11.9175 17.5809 12.045 17.4222 12.2242 17.3828C13.0851 17.1933 13.8991 16.8567 14.6436 16.3824C14.798 16.284 15.0002 16.3062 15.1298 16.4357L16.1689 17.4748L18.0471 15.5966L17.0103 14.5598C16.8806 14.4301 16.8586 14.2276 16.9575 14.073C17.4337 13.3284 17.7721 12.5136 17.963 11.6515C18.0025 11.4725 18.1612 11.3452 18.3443 11.3452H19.8081V8.68896H18.3465C18.1631 8.68896 18.0044 8.5614 17.965 8.38226C17.775 7.51892 17.4372 6.70288 16.961 5.95703C16.8624 5.80246 16.8845 5.60028 17.0141 5.47058L18.0471 4.43756L16.1689 2.55936L15.1359 3.59238C15.0063 3.72192 14.804 3.74405 14.6494 3.64548C13.9036 3.16925 13.0875 2.83157 12.2242 2.64145C12.045 2.60208 11.9175 2.44339 11.9175 2.25998V0.79834H9.26123V2.26212C9.26123 2.44537 9.13397 2.60391 8.95514 2.64359C8.09286 2.83447 7.27805 3.17276 6.53342 3.64899C6.379 3.74786 6.17636 3.72589 6.04681 3.59619L5.00983 2.55936L3.13162 4.43756L4.17075 5.47684C4.30029 5.60623 4.32242 5.80841 4.224 5.96283C3.74976 6.70731 3.41315 7.52136 3.22363 8.38226C3.18427 8.5614 3.02557 8.68896 2.84216 8.68896H1.37061V11.3452H2.8443C3.02756 11.3452 3.1861 11.4726 3.22577 11.6515C3.41605 12.5113 3.75327 13.324 4.22766 14.0672C4.32623 14.2218 4.30426 14.4241 4.17456 14.5537L3.13162 15.5966L5.00983 17.475L6.05276 16.4319C6.1283 16.3565 6.22824 16.3174 6.3291 16.3174Z" fill="#BE970D"/>
<path d="M10.5894 15.7176C9.12899 15.7176 7.66857 15.1616 6.55666 14.0498C4.333 11.8262 4.333 8.208 6.55666 5.98434C7.45358 5.08758 8.59081 4.52666 9.84539 4.36248C11.0601 4.20348 12.3143 4.44427 13.3772 5.04027C13.5653 5.14571 13.6323 5.38375 13.5269 5.57189C13.4213 5.76018 13.1833 5.82717 12.9951 5.72158C11.0823 4.64889 8.66177 4.98412 7.10918 6.53686C5.19009 8.4558 5.19009 11.5784 7.10918 13.4975C8.06866 14.4568 9.32919 14.9365 10.5894 14.9367C11.8499 14.9368 13.1102 14.4571 14.0698 13.4975C15.5702 11.9971 15.9417 9.7145 14.9942 7.81768C14.8977 7.62466 14.976 7.38998 15.169 7.29354C15.3619 7.1971 15.5966 7.27553 15.693 7.46856C16.791 9.66643 16.3607 12.3114 14.6222 14.0498C13.5102 15.1616 12.0498 15.7176 10.5894 15.7176Z" fill="#BE970D"/>
<path d="M14.4312 6.7363C14.328 6.7363 14.2276 6.69479 14.1545 6.6217C14.0819 6.54907 14.0405 6.44867 14.0405 6.34567C14.0405 6.24283 14.0819 6.14212 14.1545 6.06949C14.2271 5.9967 14.328 5.95505 14.4312 5.95505C14.5338 5.95505 14.6346 5.9967 14.7073 6.06949C14.78 6.14212 14.8218 6.24283 14.8218 6.34567C14.8218 6.44867 14.78 6.54907 14.7073 6.6217C14.6342 6.69479 14.5338 6.7363 14.4312 6.7363Z" fill="#BE970D"/>
<path d="M10.0381 12.8947C9.93451 12.8947 9.83517 12.8535 9.76193 12.7803L7.29169 10.3099C7.1391 10.1575 7.1391 9.91013 7.29169 9.75754L8.69275 8.35632C8.76599 8.28308 8.86533 8.24203 8.96893 8.24203C9.07254 8.24203 9.17203 8.28308 9.24527 8.35632L10.0381 9.14932L11.9337 7.25388C12.0862 7.10129 12.3335 7.10129 12.4861 7.25388L13.8873 8.65509C14.0397 8.80753 14.0397 9.05487 13.8873 9.20746L10.3145 12.7803C10.2411 12.8535 10.1417 12.8947 10.0381 12.8947ZM8.12024 10.0337L10.0381 11.9516L13.0586 8.93127L12.2099 8.08258L10.3145 9.97803C10.2412 10.0513 10.1417 10.0925 10.0381 10.0925C9.93451 10.0925 9.83517 10.0513 9.76193 9.97803L8.96893 9.18503L8.12024 10.0337Z" fill="#BE970D"/>
</svg>
