<svg width="21" height="18" viewBox="0 0 21 18" fill="none" xmlns="http://www.w3.org/2000/svg">
<path fill-rule="evenodd" clip-rule="evenodd" d="M10.0813 0.55871L16.0813 3.55871C16.9063 3.93371 17.3563 4.68371 17.3563 5.50871V12.6337C17.3563 13.5337 16.8313 14.2837 16.0813 14.6587L10.0813 17.6587C9.78132 17.8087 9.48132 17.8837 9.10632 17.8837C8.80632 17.8837 8.43132 17.8087 8.13132 17.6587L2.13132 14.6587C1.30632 14.2837 0.856323 13.4587 0.856323 12.6337V5.50871C0.856323 4.68371 1.30632 3.93371 2.05632 3.55871L8.05632 0.55871C8.73132 0.25871 9.48132 0.25871 10.0813 0.55871ZM9.10632 1.75871C9.03132 1.75871 8.88132 1.75871 8.80632 1.83371L3.25632 4.60871L9.10632 7.53371L14.9563 4.60871L9.40632 1.83371C9.33132 1.75871 9.25632 1.75871 9.10632 1.75871ZM2.73132 13.3837C2.50632 13.2337 2.35632 12.9337 2.35632 12.7087V5.80871L8.35632 8.80871V16.1587L2.73132 13.3837ZM9.85632 16.1587L15.4063 13.3837C15.7063 13.2337 15.8563 13.0087 15.8563 12.7087V5.80871L9.85632 8.80871V16.1587Z" fill="black"/>
<mask id="mask0" mask-type="alpha" maskUnits="userSpaceOnUse" x="0" y="0" width="18" height="18">
<path fill-rule="evenodd" clip-rule="evenodd" d="M10.0813 0.55871L16.0813 3.55871C16.9063 3.93371 17.3563 4.68371 17.3563 5.50871V12.6337C17.3563 13.5337 16.8313 14.2837 16.0813 14.6587L10.0813 17.6587C9.78132 17.8087 9.48132 17.8837 9.10632 17.8837C8.80632 17.8837 8.43132 17.8087 8.13132 17.6587L2.13132 14.6587C1.30632 14.2837 0.856323 13.4587 0.856323 12.6337V5.50871C0.856323 4.68371 1.30632 3.93371 2.05632 3.55871L8.05632 0.55871C8.73132 0.25871 9.48132 0.25871 10.0813 0.55871ZM9.10632 1.75871C9.03132 1.75871 8.88132 1.75871 8.80632 1.83371L3.25632 4.60871L9.10632 7.53371L14.9563 4.60871L9.40632 1.83371C9.33132 1.75871 9.25632 1.75871 9.10632 1.75871ZM2.73132 13.3837C2.50632 13.2337 2.35632 12.9337 2.35632 12.7087V5.80871L8.35632 8.80871V16.1587L2.73132 13.3837ZM9.85632 16.1587L15.4063 13.3837C15.7063 13.2337 15.8563 13.0087 15.8563 12.7087V5.80871L9.85632 8.80871V16.1587Z" fill="white"/>
</mask>
<g mask="url(#mask0)">
<rect x="0.106323" y="0.108704" width="18" height="18" fill="#2CBACB"/>
</g>
<circle cx="17.05" cy="13.8792" r="3.55218" fill="#2CBACB"/>
<path d="M18.8278 12.1415L16.3468 14.6226L15.272 13.5478C15.1841 13.4598 15.0649 13.4105 14.9406 13.4105C14.8162 13.4105 14.697 13.4598 14.6091 13.5478C14.5212 13.6357 14.4718 13.7549 14.4718 13.8792C14.4718 14.0035 14.5212 14.1228 14.6091 14.2107L16.0153 15.6169C16.0589 15.6605 16.1106 15.695 16.1674 15.7186C16.2243 15.7421 16.2853 15.7542 16.3468 15.7542C16.4084 15.7542 16.4693 15.7421 16.5262 15.7186C16.5831 15.695 16.6348 15.6605 16.6783 15.6169L19.4908 12.8044C19.5343 12.7609 19.5688 12.7092 19.5924 12.6524C19.616 12.5955 19.6281 12.5345 19.6281 12.473C19.6281 12.4114 19.616 12.3505 19.5924 12.2936C19.5688 12.2367 19.5343 12.185 19.4908 12.1415C19.4473 12.098 19.3956 12.0635 19.3387 12.0399C19.2818 12.0163 19.2209 12.0042 19.1593 12.0042C19.0978 12.0042 19.0368 12.0163 18.9799 12.0399C18.9231 12.0635 18.8714 12.098 18.8278 12.1415Z" fill="#F8F8F8"/>
</svg>
